<svg xmlns="http://www.w3.org/2000/svg" width="34.486" height="30.821" viewBox="0 0 34.486 30.821">
  <path id="filters-2-svgrepo-com" d="M22.326,6.665a3.665,3.665,0,0,0-7.33,0m7.33,0a3.665,3.665,0,0,1-7.33,0m7.33,0h11M15,6.665H4M25.991,19.493a3.665,3.665,0,1,0,3.665-3.665A3.665,3.665,0,0,0,25.991,19.493Zm0,0H4m7.33,12.828a3.665,3.665,0,1,0-3.665,3.665A3.665,3.665,0,0,0,11.33,32.321Zm0,0H33.321" transform="translate(-2.25 34.071) rotate(-90)" fill="none" stroke="#869694" stroke-linecap="round" stroke-width="1.5"/>
</svg>
